<svg width="24" height="24" viewBox="0 0 24 24" fill="none" xmlns="http://www.w3.org/2000/svg">
<symbol viewBox="0 0 24 24" id="gd-close-icon">
<circle cx="12" cy="12" r="12" fill="#F7F7F7"/>
<path d="M13.1749 12L16.7583 8.42499C16.9152 8.26807 17.0034 8.05524 17.0034 7.83333C17.0034 7.61141 16.9152 7.39858 16.7583 7.24166C16.6014 7.08474 16.3885 6.99658 16.1666 6.99658C15.9447 6.99658 15.7319 7.08474 15.5749 7.24166L11.9999 10.825L8.42495 7.24166C8.26803 7.08474 8.0552 6.99658 7.83328 6.99658C7.61136 6.99658 7.39854 7.08474 7.24162 7.24166C7.0847 7.39858 6.99654 7.61141 6.99654 7.83333C6.99654 8.05524 7.0847 8.26807 7.24162 8.42499L10.8249 12L7.24162 15.575C7.16351 15.6525 7.10151 15.7446 7.05921 15.8462C7.0169 15.9477 6.99512 16.0566 6.99512 16.1667C6.99512 16.2767 7.0169 16.3856 7.05921 16.4871C7.10151 16.5887 7.16351 16.6809 7.24162 16.7583C7.31908 16.8364 7.41125 16.8984 7.5128 16.9407C7.61435 16.983 7.72327 17.0048 7.83328 17.0048C7.94329 17.0048 8.05221 16.983 8.15376 16.9407C8.25531 16.8984 8.34748 16.8364 8.42495 16.7583L11.9999 13.175L15.5749 16.7583C15.6524 16.8364 15.7446 16.8984 15.8461 16.9407C15.9477 16.983 16.0566 17.0048 16.1666 17.0048C16.2766 17.0048 16.3855 16.983 16.4871 16.9407C16.5886 16.8984 16.6808 16.8364 16.7583 16.7583C16.8364 16.6809 16.8984 16.5887 16.9407 16.4871C16.983 16.3856 17.0048 16.2767 17.0048 16.1667C17.0048 16.0566 16.983 15.9477 16.9407 15.8462C16.8984 15.7446 16.8364 15.6525 16.7583 15.575L13.1749 12Z" fill="#3DBF2F"/>
</symbol>
</svg>
