<svg width="65" height="64" viewBox="0 0 65 64" fill="none" xmlns="http://www.w3.org/2000/svg">
<symbol viewBox="0 0 24 24" id="gd-money-fast">
<circle cx="33" cy="32" r="30.25" fill="#3DBF2F" stroke="black" stroke-width="1.5"/>
<path fill-rule="evenodd" clip-rule="evenodd" d="M43.3767 25.106C41.013 25.106 39.3227 26.5985 39.0474 27.8182C38.7722 29.0378 39.7888 30.5303 42.1525 30.5303C45.7325 30.5303 48.6626 32.9246 47.857 36.494C47.0514 40.0634 43.0406 42.4577 39.4606 42.4577C35.8805 42.4577 32.9505 40.0634 33.756 36.494C33.9587 35.5961 34.8692 34.8682 35.7896 34.8682C36.7101 34.8682 37.292 35.5961 37.0894 36.494C36.8141 37.7137 37.8307 39.2062 40.1944 39.2062C42.5581 39.2062 44.2484 37.7137 44.5237 36.494C44.799 35.2744 43.7823 33.7819 41.4186 33.7819C37.8386 33.7819 34.9085 31.3876 35.7141 27.8182C36.5197 24.2488 40.5305 21.8545 44.1105 21.8545C47.6906 21.8545 50.6207 24.2488 49.8151 27.8182C49.6124 28.7161 48.702 29.444 47.7815 29.444C46.861 29.444 46.2791 28.7161 46.4818 27.8182C46.757 26.5985 45.7404 25.106 43.3767 25.106Z" fill="white"/>
<path fill-rule="evenodd" clip-rule="evenodd" d="M44.9621 18.0825C45.8826 18.0825 46.4645 18.8104 46.2618 19.7083L45.4105 23.4804C45.2078 24.3783 44.2974 25.1062 43.3769 25.1062C42.4564 25.1062 41.8745 24.3783 42.0772 23.4804L42.9285 19.7083C43.1311 18.8104 44.0416 18.0825 44.9621 18.0825Z" fill="white"/>
<path fill-rule="evenodd" clip-rule="evenodd" d="M40.195 39.2061C41.1155 39.2061 41.6974 39.9339 41.4947 40.8318L40.6434 44.6039C40.4408 45.5018 39.5303 46.2297 38.6098 46.2297C37.6893 46.2297 37.1074 45.5018 37.3101 44.6039L38.1614 40.8318C38.364 39.9339 39.2745 39.2061 40.195 39.2061Z" fill="white"/>
<path fill-rule="evenodd" clip-rule="evenodd" d="M24.5 25.3332C24.5 24.4127 25.2462 23.6665 26.1667 23.6665L33.1463 23.6665C34.0668 23.6665 34.813 24.4127 34.813 25.3332C34.813 26.2536 34.0668 26.9998 33.1463 26.9998L26.1667 26.9998C25.2462 26.9998 24.5 26.2536 24.5 25.3332Z" fill="white"/>
<path fill-rule="evenodd" clip-rule="evenodd" d="M20.3745 31.9997C20.3745 31.0792 21.1207 30.333 22.0412 30.333L31.0834 30.333C32.0039 30.333 32.7501 31.0792 32.7501 31.9997C32.7501 32.9201 32.0039 33.6663 31.0834 33.6663L22.0412 33.6663C21.1207 33.6663 20.3745 32.9201 20.3745 31.9997Z" fill="white"/>
<path fill-rule="evenodd" clip-rule="evenodd" d="M16.2495 38.6667C16.2495 37.7462 16.9957 37 17.9162 37L29.021 37C29.9415 37 30.6877 37.7462 30.6877 38.6667C30.6877 39.5871 29.9415 40.3333 29.021 40.3333L17.9162 40.3333C16.9957 40.3333 16.2495 39.5871 16.2495 38.6667Z" fill="white"/>
</symbol>
</svg>
