<svg width="65" height="64" viewBox="0 0 65 64" fill="none" xmlns="http://www.w3.org/2000/svg">
<symbol viewBox="0 0 65 64" id="gd-shield-money">
<circle cx="33" cy="32" r="30.25" fill="#3DBF2F" stroke="black" stroke-width="1.5"/>
<path d="M45.6665 18.0002C45.4998 17.8335 45.1665 17.6668 44.9998 17.6668C44.8332 17.6668 44.4998 17.6668 44.3332 17.6668C42.4998 18.0002 40.6665 18.0002 38.9998 17.6668C37.3332 17.3335 35.4998 16.5002 33.9998 15.5002C33.6665 15.5002 33.3332 15.3335 32.9998 15.3335C32.6665 15.3335 32.3332 15.5002 31.9998 15.6668C30.4998 16.6668 28.8332 17.5002 26.9998 17.8335C25.1665 18.1668 23.3332 18.1668 21.6665 17.8335C21.4998 17.8335 21.1665 17.8335 20.9998 17.8335C20.8332 17.8335 20.4998 18.0002 20.3332 18.1668C20.1665 18.1668 19.9998 18.5002 19.8332 18.6668C19.6665 18.8335 19.6665 19.1668 19.6665 19.3335V31.8335C19.6665 34.1668 20.1665 36.5002 21.3332 38.6668C22.4998 40.8335 23.9998 42.6668 25.9998 44.0002L31.9998 48.3335C32.3332 48.5002 32.6665 48.6668 32.9998 48.6668C33.3332 48.6668 33.6665 48.5002 33.9998 48.3335L39.9998 44.0002C41.9998 42.6668 43.4998 40.8335 44.6665 38.6668C45.8332 36.5002 46.3332 34.1668 46.3332 31.8335V19.3335C46.3332 19.1668 46.3332 18.8335 46.1665 18.6668C45.9998 18.5002 45.8332 18.1668 45.6665 18.0002ZM42.9998 31.8335C42.9998 33.6668 42.4998 35.5002 41.6665 37.1668C40.8332 38.8335 39.6665 40.1668 37.9998 41.3335L32.9998 45.0002L27.8332 41.3335C26.3332 40.3335 25.1665 38.8335 24.1665 37.1668C23.4998 35.5002 22.9998 33.6668 22.9998 31.8335V21.3335C26.4998 21.6668 29.9998 20.8335 32.9998 19.0002C35.9998 20.8335 39.4998 21.6668 42.9998 21.3335V31.8335Z" fill="white"/>
<path fill-rule="evenodd" clip-rule="evenodd" d="M32.9998 28.1038C31.9476 28.1038 31.5882 28.7583 31.5882 29.0104C31.5882 29.2625 31.9476 29.917 32.9998 29.917C35.0701 29.917 37.2448 31.3441 37.2448 33.6569C37.2448 35.9696 35.0701 37.3968 32.9998 37.3968C30.9296 37.3968 28.7549 35.9696 28.7549 33.6569C28.7549 32.8745 29.3891 32.2402 30.1715 32.2402C30.954 32.2402 31.5882 32.8745 31.5882 33.6569C31.5882 33.909 31.9476 34.5634 32.9998 34.5634C34.052 34.5634 34.4114 33.909 34.4114 33.6569C34.4114 33.4047 34.052 32.7503 32.9998 32.7503C30.9296 32.7503 28.7549 31.3231 28.7549 29.0104C28.7549 26.6977 30.9296 25.2705 32.9998 25.2705C35.0701 25.2705 37.2448 26.6977 37.2448 29.0104C37.2448 29.7928 36.6105 30.4271 35.8281 30.4271C35.0457 30.4271 34.4114 29.7928 34.4114 29.0104C34.4114 28.7583 34.052 28.1038 32.9998 28.1038Z" fill="white"/>
<path fill-rule="evenodd" clip-rule="evenodd" d="M33.0002 23.25C33.7826 23.25 34.4168 23.8843 34.4168 24.6667V26.6869C34.4168 27.4693 33.7826 28.1035 33.0002 28.1035C32.2178 28.1035 31.5835 27.4693 31.5835 26.6869V24.6667C31.5835 23.8843 32.2178 23.25 33.0002 23.25Z" fill="white"/>
<path fill-rule="evenodd" clip-rule="evenodd" d="M33.0002 34.563C33.7826 34.563 34.4168 35.1973 34.4168 35.9797V37.9999C34.4168 38.7823 33.7826 39.4165 33.0002 39.4165C32.2178 39.4165 31.5835 38.7823 31.5835 37.9999V35.9797C31.5835 35.1973 32.2178 34.563 33.0002 34.563Z" fill="white"/>
</svg>
